<mxfile host="app.diagrams.net" modified="2024-03-13T23:14:06.828Z" agent="Mozilla/5.0 (Macintosh; Intel Mac OS X 10_15_7) AppleWebKit/537.36 (KHTML, like Gecko) Chrome/122.0.0.0 Safari/537.36" etag="9gGOKHSV6a6nx-pkDPei" version="24.0.1" type="device">
  <diagram name="Page-1" id="lxbi4EARD5IPRj_dJ8pp">
    <mxGraphModel dx="1272" dy="723" grid="1" gridSize="10" guides="1" tooltips="1" connect="1" arrows="1" fold="1" page="1" pageScale="1" pageWidth="850" pageHeight="1100" math="0" shadow="0">
      <root>
        <mxCell id="0" />
        <mxCell id="1" parent="0" />
        <mxCell id="vqpURYTY1Shve0pSmzwV-5" value="&lt;font style=&quot;font-size: 28px;&quot;&gt;Staff&lt;/font&gt;" style="shape=table;startSize=170;container=1;collapsible=1;childLayout=tableLayout;fixedRows=1;rowLines=0;fontStyle=1;align=center;resizeLast=1;html=1;direction=north;" vertex="1" parent="1">
          <mxGeometry x="860" y="40" width="1004" height="30" as="geometry">
            <mxRectangle x="380" y="150" width="60" height="60" as="alternateBounds" />
          </mxGeometry>
        </mxCell>
        <mxCell id="vqpURYTY1Shve0pSmzwV-9" value="" style="shape=tableRow;horizontal=0;startSize=0;swimlaneHead=0;swimlaneBody=0;fillColor=none;collapsible=0;dropTarget=0;points=[[0,0.5],[1,0.5]];portConstraint=eastwest;top=0;left=0;right=0;bottom=0;" vertex="1" parent="vqpURYTY1Shve0pSmzwV-5">
          <mxGeometry x="170" width="834" height="30" as="geometry" />
        </mxCell>
        <mxCell id="vqpURYTY1Shve0pSmzwV-11" value="StaffID" style="shape=partialRectangle;connectable=0;fillColor=none;top=0;left=0;bottom=0;right=0;align=left;spacingLeft=6;overflow=hidden;whiteSpace=wrap;html=1;" vertex="1" parent="vqpURYTY1Shve0pSmzwV-9">
          <mxGeometry width="100" height="30" as="geometry">
            <mxRectangle width="100" height="30" as="alternateBounds" />
          </mxGeometry>
        </mxCell>
        <mxCell id="vqpURYTY1Shve0pSmzwV-21" value="StaffPassword" style="shape=partialRectangle;connectable=0;fillColor=none;top=0;left=0;bottom=0;right=0;align=left;spacingLeft=6;overflow=hidden;whiteSpace=wrap;html=1;" vertex="1" parent="vqpURYTY1Shve0pSmzwV-9">
          <mxGeometry x="100" width="110" height="30" as="geometry">
            <mxRectangle width="110" height="30" as="alternateBounds" />
          </mxGeometry>
        </mxCell>
        <mxCell id="vqpURYTY1Shve0pSmzwV-52" value="Name" style="shape=partialRectangle;connectable=0;fillColor=none;top=0;left=0;bottom=0;right=0;align=left;spacingLeft=6;overflow=hidden;whiteSpace=wrap;html=1;" vertex="1" parent="vqpURYTY1Shve0pSmzwV-9">
          <mxGeometry x="210" width="110" height="30" as="geometry">
            <mxRectangle width="110" height="30" as="alternateBounds" />
          </mxGeometry>
        </mxCell>
        <mxCell id="vqpURYTY1Shve0pSmzwV-53" value="Position&amp;nbsp;" style="shape=partialRectangle;connectable=0;fillColor=none;top=0;left=0;bottom=0;right=0;align=left;spacingLeft=6;overflow=hidden;whiteSpace=wrap;html=1;" vertex="1" parent="vqpURYTY1Shve0pSmzwV-9">
          <mxGeometry x="320" width="110" height="30" as="geometry">
            <mxRectangle width="110" height="30" as="alternateBounds" />
          </mxGeometry>
        </mxCell>
        <mxCell id="vqpURYTY1Shve0pSmzwV-54" value="Salary" style="shape=partialRectangle;connectable=0;fillColor=none;top=0;left=0;bottom=0;right=0;align=left;spacingLeft=6;overflow=hidden;whiteSpace=wrap;html=1;" vertex="1" parent="vqpURYTY1Shve0pSmzwV-9">
          <mxGeometry x="430" width="110" height="30" as="geometry">
            <mxRectangle width="110" height="30" as="alternateBounds" />
          </mxGeometry>
        </mxCell>
        <mxCell id="vqpURYTY1Shve0pSmzwV-55" value="Address" style="shape=partialRectangle;connectable=0;fillColor=none;top=0;left=0;bottom=0;right=0;align=left;spacingLeft=6;overflow=hidden;whiteSpace=wrap;html=1;" vertex="1" parent="vqpURYTY1Shve0pSmzwV-9">
          <mxGeometry x="540" width="98" height="30" as="geometry">
            <mxRectangle width="98" height="30" as="alternateBounds" />
          </mxGeometry>
        </mxCell>
        <mxCell id="vqpURYTY1Shve0pSmzwV-56" value="Phone Number" style="shape=partialRectangle;connectable=0;fillColor=none;top=0;left=0;bottom=0;right=0;align=left;spacingLeft=6;overflow=hidden;whiteSpace=wrap;html=1;" vertex="1" parent="vqpURYTY1Shve0pSmzwV-9">
          <mxGeometry x="638" width="98" height="30" as="geometry">
            <mxRectangle width="98" height="30" as="alternateBounds" />
          </mxGeometry>
        </mxCell>
        <mxCell id="vqpURYTY1Shve0pSmzwV-57" value="Email" style="shape=partialRectangle;connectable=0;fillColor=none;top=0;left=0;bottom=0;right=0;align=left;spacingLeft=6;overflow=hidden;whiteSpace=wrap;html=1;" vertex="1" parent="vqpURYTY1Shve0pSmzwV-9">
          <mxGeometry x="736" width="98" height="30" as="geometry">
            <mxRectangle width="98" height="30" as="alternateBounds" />
          </mxGeometry>
        </mxCell>
        <mxCell id="vqpURYTY1Shve0pSmzwV-58" value="&lt;font style=&quot;font-size: 28px;&quot;&gt;Guest&lt;/font&gt;" style="shape=table;startSize=170;container=1;collapsible=1;childLayout=tableLayout;fixedRows=1;rowLines=0;fontStyle=1;align=center;resizeLast=1;html=1;direction=north;" vertex="1" parent="1">
          <mxGeometry x="880" y="630" width="894" height="30" as="geometry">
            <mxRectangle x="380" y="150" width="60" height="60" as="alternateBounds" />
          </mxGeometry>
        </mxCell>
        <mxCell id="vqpURYTY1Shve0pSmzwV-59" value="" style="shape=tableRow;horizontal=0;startSize=0;swimlaneHead=0;swimlaneBody=0;fillColor=none;collapsible=0;dropTarget=0;points=[[0,0.5],[1,0.5]];portConstraint=eastwest;top=0;left=0;right=0;bottom=0;" vertex="1" parent="vqpURYTY1Shve0pSmzwV-58">
          <mxGeometry x="170" width="724" height="30" as="geometry" />
        </mxCell>
        <mxCell id="vqpURYTY1Shve0pSmzwV-60" value="GuestID" style="shape=partialRectangle;connectable=0;fillColor=none;top=0;left=0;bottom=0;right=0;align=left;spacingLeft=6;overflow=hidden;whiteSpace=wrap;html=1;" vertex="1" parent="vqpURYTY1Shve0pSmzwV-59">
          <mxGeometry width="100" height="30" as="geometry">
            <mxRectangle width="100" height="30" as="alternateBounds" />
          </mxGeometry>
        </mxCell>
        <mxCell id="vqpURYTY1Shve0pSmzwV-61" value="GuestPassword" style="shape=partialRectangle;connectable=0;fillColor=none;top=0;left=0;bottom=0;right=0;align=left;spacingLeft=6;overflow=hidden;whiteSpace=wrap;html=1;" vertex="1" parent="vqpURYTY1Shve0pSmzwV-59">
          <mxGeometry x="100" width="110" height="30" as="geometry">
            <mxRectangle width="110" height="30" as="alternateBounds" />
          </mxGeometry>
        </mxCell>
        <mxCell id="vqpURYTY1Shve0pSmzwV-62" value="Name" style="shape=partialRectangle;connectable=0;fillColor=none;top=0;left=0;bottom=0;right=0;align=left;spacingLeft=6;overflow=hidden;whiteSpace=wrap;html=1;" vertex="1" parent="vqpURYTY1Shve0pSmzwV-59">
          <mxGeometry x="210" width="110" height="30" as="geometry">
            <mxRectangle width="110" height="30" as="alternateBounds" />
          </mxGeometry>
        </mxCell>
        <mxCell id="vqpURYTY1Shve0pSmzwV-63" value="Nationality" style="shape=partialRectangle;connectable=0;fillColor=none;top=0;left=0;bottom=0;right=0;align=left;spacingLeft=6;overflow=hidden;whiteSpace=wrap;html=1;" vertex="1" parent="vqpURYTY1Shve0pSmzwV-59">
          <mxGeometry x="320" width="110" height="30" as="geometry">
            <mxRectangle width="110" height="30" as="alternateBounds" />
          </mxGeometry>
        </mxCell>
        <mxCell id="vqpURYTY1Shve0pSmzwV-65" value="Address" style="shape=partialRectangle;connectable=0;fillColor=none;top=0;left=0;bottom=0;right=0;align=left;spacingLeft=6;overflow=hidden;whiteSpace=wrap;html=1;" vertex="1" parent="vqpURYTY1Shve0pSmzwV-59">
          <mxGeometry x="430" width="98" height="30" as="geometry">
            <mxRectangle width="98" height="30" as="alternateBounds" />
          </mxGeometry>
        </mxCell>
        <mxCell id="vqpURYTY1Shve0pSmzwV-66" value="Phone Number" style="shape=partialRectangle;connectable=0;fillColor=none;top=0;left=0;bottom=0;right=0;align=left;spacingLeft=6;overflow=hidden;whiteSpace=wrap;html=1;" vertex="1" parent="vqpURYTY1Shve0pSmzwV-59">
          <mxGeometry x="528" width="98" height="30" as="geometry">
            <mxRectangle width="98" height="30" as="alternateBounds" />
          </mxGeometry>
        </mxCell>
        <mxCell id="vqpURYTY1Shve0pSmzwV-67" value="Email" style="shape=partialRectangle;connectable=0;fillColor=none;top=0;left=0;bottom=0;right=0;align=left;spacingLeft=6;overflow=hidden;whiteSpace=wrap;html=1;" vertex="1" parent="vqpURYTY1Shve0pSmzwV-59">
          <mxGeometry x="626" width="98" height="30" as="geometry">
            <mxRectangle width="98" height="30" as="alternateBounds" />
          </mxGeometry>
        </mxCell>
        <mxCell id="vqpURYTY1Shve0pSmzwV-68" value="&lt;font style=&quot;font-size: 28px;&quot;&gt;Room Service&lt;/font&gt;" style="shape=table;startSize=199;container=1;collapsible=1;childLayout=tableLayout;fixedRows=1;rowLines=0;fontStyle=1;align=center;resizeLast=1;html=1;direction=north;" vertex="1" parent="1">
          <mxGeometry x="850" y="230" width="894" height="30" as="geometry">
            <mxRectangle x="380" y="150" width="60" height="60" as="alternateBounds" />
          </mxGeometry>
        </mxCell>
        <mxCell id="vqpURYTY1Shve0pSmzwV-69" value="" style="shape=tableRow;horizontal=0;startSize=0;swimlaneHead=0;swimlaneBody=0;fillColor=none;collapsible=0;dropTarget=0;points=[[0,0.5],[1,0.5]];portConstraint=eastwest;top=0;left=0;right=0;bottom=0;" vertex="1" parent="vqpURYTY1Shve0pSmzwV-68">
          <mxGeometry x="199" width="695" height="30" as="geometry" />
        </mxCell>
        <mxCell id="vqpURYTY1Shve0pSmzwV-70" value="RoomServiceID" style="shape=partialRectangle;connectable=0;fillColor=none;top=0;left=0;bottom=0;right=0;align=left;spacingLeft=6;overflow=hidden;whiteSpace=wrap;html=1;" vertex="1" parent="vqpURYTY1Shve0pSmzwV-69">
          <mxGeometry width="100" height="30" as="geometry">
            <mxRectangle width="100" height="30" as="alternateBounds" />
          </mxGeometry>
        </mxCell>
        <mxCell id="vqpURYTY1Shve0pSmzwV-71" value="BookingID" style="shape=partialRectangle;connectable=0;fillColor=none;top=0;left=0;bottom=0;right=0;align=left;spacingLeft=6;overflow=hidden;whiteSpace=wrap;html=1;" vertex="1" parent="vqpURYTY1Shve0pSmzwV-69">
          <mxGeometry x="100" width="110" height="30" as="geometry">
            <mxRectangle width="110" height="30" as="alternateBounds" />
          </mxGeometry>
        </mxCell>
        <mxCell id="vqpURYTY1Shve0pSmzwV-72" value="ServiceID" style="shape=partialRectangle;connectable=0;fillColor=none;top=0;left=0;bottom=0;right=0;align=left;spacingLeft=6;overflow=hidden;whiteSpace=wrap;html=1;" vertex="1" parent="vqpURYTY1Shve0pSmzwV-69">
          <mxGeometry x="210" width="110" height="30" as="geometry">
            <mxRectangle width="110" height="30" as="alternateBounds" />
          </mxGeometry>
        </mxCell>
        <mxCell id="vqpURYTY1Shve0pSmzwV-73" value="StaffID" style="shape=partialRectangle;connectable=0;fillColor=none;top=0;left=0;bottom=0;right=0;align=left;spacingLeft=6;overflow=hidden;whiteSpace=wrap;html=1;" vertex="1" parent="vqpURYTY1Shve0pSmzwV-69">
          <mxGeometry x="320" width="110" height="30" as="geometry">
            <mxRectangle width="110" height="30" as="alternateBounds" />
          </mxGeometry>
        </mxCell>
        <mxCell id="vqpURYTY1Shve0pSmzwV-74" value="RoomID" style="shape=partialRectangle;connectable=0;fillColor=none;top=0;left=0;bottom=0;right=0;align=left;spacingLeft=6;overflow=hidden;whiteSpace=wrap;html=1;" vertex="1" parent="vqpURYTY1Shve0pSmzwV-69">
          <mxGeometry x="430" width="98" height="30" as="geometry">
            <mxRectangle width="98" height="30" as="alternateBounds" />
          </mxGeometry>
        </mxCell>
        <mxCell id="vqpURYTY1Shve0pSmzwV-75" value="Quantity&amp;nbsp;" style="shape=partialRectangle;connectable=0;fillColor=none;top=0;left=0;bottom=0;right=0;align=left;spacingLeft=6;overflow=hidden;whiteSpace=wrap;html=1;" vertex="1" parent="vqpURYTY1Shve0pSmzwV-69">
          <mxGeometry x="528" width="98" height="30" as="geometry">
            <mxRectangle width="98" height="30" as="alternateBounds" />
          </mxGeometry>
        </mxCell>
        <mxCell id="vqpURYTY1Shve0pSmzwV-76" value="Status" style="shape=partialRectangle;connectable=0;fillColor=none;top=0;left=0;bottom=0;right=0;align=left;spacingLeft=6;overflow=hidden;whiteSpace=wrap;html=1;" vertex="1" parent="vqpURYTY1Shve0pSmzwV-69">
          <mxGeometry x="626" width="69" height="30" as="geometry">
            <mxRectangle width="69" height="30" as="alternateBounds" />
          </mxGeometry>
        </mxCell>
        <mxCell id="vqpURYTY1Shve0pSmzwV-77" value="&lt;font style=&quot;font-size: 28px;&quot;&gt;Service&lt;/font&gt;" style="shape=table;startSize=199;container=1;collapsible=1;childLayout=tableLayout;fixedRows=1;rowLines=0;fontStyle=1;align=center;resizeLast=1;html=1;direction=north;" vertex="1" parent="1">
          <mxGeometry x="860" y="150" width="629" height="30" as="geometry">
            <mxRectangle x="380" y="150" width="60" height="60" as="alternateBounds" />
          </mxGeometry>
        </mxCell>
        <mxCell id="vqpURYTY1Shve0pSmzwV-78" value="" style="shape=tableRow;horizontal=0;startSize=0;swimlaneHead=0;swimlaneBody=0;fillColor=none;collapsible=0;dropTarget=0;points=[[0,0.5],[1,0.5]];portConstraint=eastwest;top=0;left=0;right=0;bottom=0;" vertex="1" parent="vqpURYTY1Shve0pSmzwV-77">
          <mxGeometry x="199" width="430" height="30" as="geometry" />
        </mxCell>
        <mxCell id="vqpURYTY1Shve0pSmzwV-79" value="&lt;div&gt;&lt;span style=&quot;background-color: initial;&quot;&gt;ServiceID&lt;/span&gt;&lt;br&gt;&lt;/div&gt;" style="shape=partialRectangle;connectable=0;fillColor=none;top=0;left=0;bottom=0;right=0;align=left;spacingLeft=6;overflow=hidden;whiteSpace=wrap;html=1;" vertex="1" parent="vqpURYTY1Shve0pSmzwV-78">
          <mxGeometry width="100" height="30" as="geometry">
            <mxRectangle width="100" height="30" as="alternateBounds" />
          </mxGeometry>
        </mxCell>
        <mxCell id="vqpURYTY1Shve0pSmzwV-80" value="Name" style="shape=partialRectangle;connectable=0;fillColor=none;top=0;left=0;bottom=0;right=0;align=left;spacingLeft=6;overflow=hidden;whiteSpace=wrap;html=1;" vertex="1" parent="vqpURYTY1Shve0pSmzwV-78">
          <mxGeometry x="100" width="110" height="30" as="geometry">
            <mxRectangle width="110" height="30" as="alternateBounds" />
          </mxGeometry>
        </mxCell>
        <mxCell id="vqpURYTY1Shve0pSmzwV-81" value="Description&amp;nbsp;" style="shape=partialRectangle;connectable=0;fillColor=none;top=0;left=0;bottom=0;right=0;align=left;spacingLeft=6;overflow=hidden;whiteSpace=wrap;html=1;" vertex="1" parent="vqpURYTY1Shve0pSmzwV-78">
          <mxGeometry x="210" width="110" height="30" as="geometry">
            <mxRectangle width="110" height="30" as="alternateBounds" />
          </mxGeometry>
        </mxCell>
        <mxCell id="vqpURYTY1Shve0pSmzwV-82" value="Price" style="shape=partialRectangle;connectable=0;fillColor=none;top=0;left=0;bottom=0;right=0;align=left;spacingLeft=6;overflow=hidden;whiteSpace=wrap;html=1;" vertex="1" parent="vqpURYTY1Shve0pSmzwV-78">
          <mxGeometry x="320" width="110" height="30" as="geometry">
            <mxRectangle width="110" height="30" as="alternateBounds" />
          </mxGeometry>
        </mxCell>
        <mxCell id="vqpURYTY1Shve0pSmzwV-86" value="&lt;font style=&quot;font-size: 28px;&quot;&gt;Room&lt;/font&gt;" style="shape=table;startSize=199;container=1;collapsible=1;childLayout=tableLayout;fixedRows=1;rowLines=0;fontStyle=1;align=center;resizeLast=1;html=1;direction=north;" vertex="1" parent="1">
          <mxGeometry x="840" y="340" width="629" height="30" as="geometry">
            <mxRectangle x="380" y="150" width="60" height="60" as="alternateBounds" />
          </mxGeometry>
        </mxCell>
        <mxCell id="vqpURYTY1Shve0pSmzwV-87" value="" style="shape=tableRow;horizontal=0;startSize=0;swimlaneHead=0;swimlaneBody=0;fillColor=none;collapsible=0;dropTarget=0;points=[[0,0.5],[1,0.5]];portConstraint=eastwest;top=0;left=0;right=0;bottom=0;" vertex="1" parent="vqpURYTY1Shve0pSmzwV-86">
          <mxGeometry x="199" width="430" height="30" as="geometry" />
        </mxCell>
        <mxCell id="vqpURYTY1Shve0pSmzwV-88" value="&lt;div&gt;&lt;span style=&quot;background-color: initial;&quot;&gt;RoomID&lt;/span&gt;&lt;br&gt;&lt;/div&gt;" style="shape=partialRectangle;connectable=0;fillColor=none;top=0;left=0;bottom=0;right=0;align=left;spacingLeft=6;overflow=hidden;whiteSpace=wrap;html=1;" vertex="1" parent="vqpURYTY1Shve0pSmzwV-87">
          <mxGeometry width="100" height="30" as="geometry">
            <mxRectangle width="100" height="30" as="alternateBounds" />
          </mxGeometry>
        </mxCell>
        <mxCell id="vqpURYTY1Shve0pSmzwV-89" value="Type" style="shape=partialRectangle;connectable=0;fillColor=none;top=0;left=0;bottom=0;right=0;align=left;spacingLeft=6;overflow=hidden;whiteSpace=wrap;html=1;" vertex="1" parent="vqpURYTY1Shve0pSmzwV-87">
          <mxGeometry x="100" width="110" height="30" as="geometry">
            <mxRectangle width="110" height="30" as="alternateBounds" />
          </mxGeometry>
        </mxCell>
        <mxCell id="vqpURYTY1Shve0pSmzwV-90" value="Rate" style="shape=partialRectangle;connectable=0;fillColor=none;top=0;left=0;bottom=0;right=0;align=left;spacingLeft=6;overflow=hidden;whiteSpace=wrap;html=1;" vertex="1" parent="vqpURYTY1Shve0pSmzwV-87">
          <mxGeometry x="210" width="110" height="30" as="geometry">
            <mxRectangle width="110" height="30" as="alternateBounds" />
          </mxGeometry>
        </mxCell>
        <mxCell id="vqpURYTY1Shve0pSmzwV-91" value="Availability&amp;nbsp;" style="shape=partialRectangle;connectable=0;fillColor=none;top=0;left=0;bottom=0;right=0;align=left;spacingLeft=6;overflow=hidden;whiteSpace=wrap;html=1;" vertex="1" parent="vqpURYTY1Shve0pSmzwV-87">
          <mxGeometry x="320" width="110" height="30" as="geometry">
            <mxRectangle width="110" height="30" as="alternateBounds" />
          </mxGeometry>
        </mxCell>
        <mxCell id="vqpURYTY1Shve0pSmzwV-92" value="&lt;font style=&quot;font-size: 28px;&quot;&gt;Booking&lt;/font&gt;" style="shape=table;startSize=199;container=1;collapsible=1;childLayout=tableLayout;fixedRows=1;rowLines=0;fontStyle=1;align=center;resizeLast=1;html=1;direction=north;" vertex="1" parent="1">
          <mxGeometry x="850" y="470" width="739" height="30" as="geometry">
            <mxRectangle x="380" y="150" width="60" height="60" as="alternateBounds" />
          </mxGeometry>
        </mxCell>
        <mxCell id="vqpURYTY1Shve0pSmzwV-93" value="" style="shape=tableRow;horizontal=0;startSize=0;swimlaneHead=0;swimlaneBody=0;fillColor=none;collapsible=0;dropTarget=0;points=[[0,0.5],[1,0.5]];portConstraint=eastwest;top=0;left=0;right=0;bottom=0;" vertex="1" parent="vqpURYTY1Shve0pSmzwV-92">
          <mxGeometry x="199" width="540" height="30" as="geometry" />
        </mxCell>
        <mxCell id="vqpURYTY1Shve0pSmzwV-94" value="&lt;div&gt;&lt;span style=&quot;background-color: initial;&quot;&gt;BookingID&lt;/span&gt;&lt;br&gt;&lt;/div&gt;" style="shape=partialRectangle;connectable=0;fillColor=none;top=0;left=0;bottom=0;right=0;align=left;spacingLeft=6;overflow=hidden;whiteSpace=wrap;html=1;" vertex="1" parent="vqpURYTY1Shve0pSmzwV-93">
          <mxGeometry width="100" height="30" as="geometry">
            <mxRectangle width="100" height="30" as="alternateBounds" />
          </mxGeometry>
        </mxCell>
        <mxCell id="vqpURYTY1Shve0pSmzwV-95" value="GuestID" style="shape=partialRectangle;connectable=0;fillColor=none;top=0;left=0;bottom=0;right=0;align=left;spacingLeft=6;overflow=hidden;whiteSpace=wrap;html=1;" vertex="1" parent="vqpURYTY1Shve0pSmzwV-93">
          <mxGeometry x="100" width="110" height="30" as="geometry">
            <mxRectangle width="110" height="30" as="alternateBounds" />
          </mxGeometry>
        </mxCell>
        <mxCell id="vqpURYTY1Shve0pSmzwV-96" value="RoomID" style="shape=partialRectangle;connectable=0;fillColor=none;top=0;left=0;bottom=0;right=0;align=left;spacingLeft=6;overflow=hidden;whiteSpace=wrap;html=1;" vertex="1" parent="vqpURYTY1Shve0pSmzwV-93">
          <mxGeometry x="210" width="110" height="30" as="geometry">
            <mxRectangle width="110" height="30" as="alternateBounds" />
          </mxGeometry>
        </mxCell>
        <mxCell id="vqpURYTY1Shve0pSmzwV-97" value="CheckInDate" style="shape=partialRectangle;connectable=0;fillColor=none;top=0;left=0;bottom=0;right=0;align=left;spacingLeft=6;overflow=hidden;whiteSpace=wrap;html=1;" vertex="1" parent="vqpURYTY1Shve0pSmzwV-93">
          <mxGeometry x="320" width="110" height="30" as="geometry">
            <mxRectangle width="110" height="30" as="alternateBounds" />
          </mxGeometry>
        </mxCell>
        <mxCell id="vqpURYTY1Shve0pSmzwV-98" value="CheckOutDate" style="shape=partialRectangle;connectable=0;fillColor=none;top=0;left=0;bottom=0;right=0;align=left;spacingLeft=6;overflow=hidden;whiteSpace=wrap;html=1;" vertex="1" parent="vqpURYTY1Shve0pSmzwV-93">
          <mxGeometry x="430" width="110" height="30" as="geometry">
            <mxRectangle width="110" height="30" as="alternateBounds" />
          </mxGeometry>
        </mxCell>
        <mxCell id="vqpURYTY1Shve0pSmzwV-99" value="" style="endArrow=none;html=1;rounded=0;exitX=0.057;exitY=0.067;exitDx=0;exitDy=0;entryX=0.278;entryY=1;entryDx=0;entryDy=0;entryPerimeter=0;exitPerimeter=0;startArrow=classic;startFill=1;endFill=0;" edge="1" parent="1" source="vqpURYTY1Shve0pSmzwV-59" target="vqpURYTY1Shve0pSmzwV-93">
          <mxGeometry width="50" height="50" relative="1" as="geometry">
            <mxPoint x="610" y="560" as="sourcePoint" />
            <mxPoint x="740" y="490" as="targetPoint" />
            <Array as="points">
              <mxPoint x="1091" y="560" />
              <mxPoint x="1200" y="560" />
            </Array>
          </mxGeometry>
        </mxCell>
        <mxCell id="vqpURYTY1Shve0pSmzwV-100" value="" style="endArrow=none;html=1;rounded=0;exitX=0.095;exitY=1.067;exitDx=0;exitDy=0;exitPerimeter=0;startArrow=classic;startFill=1;endFill=0;" edge="1" parent="1" source="vqpURYTY1Shve0pSmzwV-87" target="vqpURYTY1Shve0pSmzwV-93">
          <mxGeometry width="50" height="50" relative="1" as="geometry">
            <mxPoint x="1280" y="510" as="sourcePoint" />
            <mxPoint x="840" y="520" as="targetPoint" />
            <Array as="points">
              <mxPoint x="1080" y="410" />
              <mxPoint x="1320" y="410" />
            </Array>
          </mxGeometry>
        </mxCell>
        <mxCell id="vqpURYTY1Shve0pSmzwV-101" value="" style="endArrow=none;html=1;rounded=0;entryX=0.694;entryY=1.01;entryDx=0;entryDy=0;entryPerimeter=0;exitX=0.098;exitY=-0.067;exitDx=0;exitDy=0;exitPerimeter=0;startArrow=classic;startFill=1;endFill=0;" edge="1" parent="1" source="vqpURYTY1Shve0pSmzwV-87" target="vqpURYTY1Shve0pSmzwV-69">
          <mxGeometry width="50" height="50" relative="1" as="geometry">
            <mxPoint x="1041.92" y="355" as="sourcePoint" />
            <mxPoint x="1508.08" y="264.14" as="targetPoint" />
            <Array as="points">
              <mxPoint x="1081" y="310" />
              <mxPoint x="1531" y="310" />
            </Array>
          </mxGeometry>
        </mxCell>
        <mxCell id="vqpURYTY1Shve0pSmzwV-102" value="" style="endArrow=none;html=1;rounded=0;exitX=0.058;exitY=0.959;exitDx=0;exitDy=0;exitPerimeter=0;endFill=0;startArrow=classic;startFill=1;" edge="1" parent="1" source="vqpURYTY1Shve0pSmzwV-93">
          <mxGeometry width="50" height="50" relative="1" as="geometry">
            <mxPoint x="1080" y="510" as="sourcePoint" />
            <mxPoint x="1160" y="260" as="targetPoint" />
            <Array as="points">
              <mxPoint x="1080" y="550" />
              <mxPoint x="790" y="550" />
              <mxPoint x="790" y="370" />
              <mxPoint x="790" y="290" />
              <mxPoint x="1160" y="290" />
            </Array>
          </mxGeometry>
        </mxCell>
        <mxCell id="vqpURYTY1Shve0pSmzwV-103" value="" style="endArrow=none;html=1;rounded=0;entryX=0.376;entryY=-0.004;entryDx=0;entryDy=0;entryPerimeter=0;exitX=0.087;exitY=1.039;exitDx=0;exitDy=0;exitPerimeter=0;startArrow=classic;startFill=1;endFill=0;" edge="1" parent="1" source="vqpURYTY1Shve0pSmzwV-78" target="vqpURYTY1Shve0pSmzwV-69">
          <mxGeometry width="50" height="50" relative="1" as="geometry">
            <mxPoint x="1100" y="190" as="sourcePoint" />
            <mxPoint x="1310" y="220" as="targetPoint" />
            <Array as="points">
              <mxPoint x="1096" y="200" />
              <mxPoint x="1310" y="200" />
            </Array>
          </mxGeometry>
        </mxCell>
        <mxCell id="vqpURYTY1Shve0pSmzwV-104" value="" style="endArrow=none;html=1;rounded=0;entryX=0.544;entryY=0.056;entryDx=0;entryDy=0;entryPerimeter=0;exitX=0.043;exitY=1.052;exitDx=0;exitDy=0;exitPerimeter=0;startArrow=classic;startFill=1;endFill=0;" edge="1" parent="1" source="vqpURYTY1Shve0pSmzwV-9" target="vqpURYTY1Shve0pSmzwV-69">
          <mxGeometry width="50" height="50" relative="1" as="geometry">
            <mxPoint x="1060" y="130" as="sourcePoint" />
            <mxPoint x="1110" y="80" as="targetPoint" />
            <Array as="points">
              <mxPoint x="1066" y="130" />
              <mxPoint x="1590" y="130" />
              <mxPoint x="1590" y="200" />
              <mxPoint x="1427" y="200" />
            </Array>
          </mxGeometry>
        </mxCell>
      </root>
    </mxGraphModel>
  </diagram>
</mxfile>
